<svg width="65" height="26" viewBox="0 0 65 26" fill="none" xmlns="http://www.w3.org/2000/svg">
<g clip-path="url(#clip0_222_9561)">
<path d="M55.9874 4.30453H52.4031C51.9766 4.30453 51.6309 4.6488 51.6309 5.07348V8.64267C51.6309 9.06734 51.9766 9.41161 52.4031 9.41161H55.9874C56.4138 9.41161 56.7596 9.06734 56.7596 8.64267V5.07348C56.7596 4.6488 56.4138 4.30453 55.9874 4.30453Z" fill="white"/>
<path d="M60.7528 1.86044H58.2714C57.9764 1.86044 57.7373 2.09855 57.7373 2.39227V4.86325C57.7373 5.15697 57.9764 5.39508 58.2714 5.39508H60.7528C61.0478 5.39508 61.2869 5.15697 61.2869 4.86325V2.39227C61.2869 2.09855 61.0478 1.86044 60.7528 1.86044Z" fill="white"/>
<path d="M55.7335 23.6192L54.3598 21.2404C54.0628 20.7259 53.4497 20.5003 52.878 20.6654C52.2948 20.8344 51.7761 20.8046 51.3712 20.5713C50.948 20.3275 50.6848 19.8849 50.6848 19.4165V1.40539C50.6848 0.655653 50.0746 0.0470276 49.3207 0.0470276H46.7997C46.0468 0.0470276 45.4356 0.654693 45.4356 1.40539V4.31316H42.7989C42.0557 4.31316 41.4531 4.91315 41.4531 5.65329V8.08011C41.4531 8.82025 42.0557 9.42024 42.7989 9.42024H45.4356V19.4165C45.4356 21.7444 46.7023 23.9207 48.7423 25.0947C49.7921 25.6995 50.9557 26 52.1617 26C53.1296 26 54.1255 25.8061 55.1117 25.4202C55.827 25.1399 56.1162 24.2826 55.7325 23.6192H55.7335Z" fill="white"/>
<path d="M31.6557 26C25.6593 26 20.7803 21.1425 20.7803 15.1705C20.7803 9.19848 25.6583 4.341 31.6557 4.341C34.8862 4.341 37.9412 5.79057 39.9889 8.21451C40.6155 8.95657 40.4092 10.0845 39.5685 10.5741L37.9663 11.5063C37.3223 11.8816 36.5067 11.7511 36.0006 11.2048C34.8948 10.0077 33.3177 9.29928 31.6547 9.29928C28.4039 9.29928 25.7596 11.9325 25.7596 15.1705C25.7596 18.4085 28.4039 21.0417 31.6547 21.0417C33.3148 21.0417 34.89 20.3352 35.9958 19.141C36.5019 18.5947 37.3175 18.4651 37.9615 18.8405L39.5627 19.7745C40.4024 20.2641 40.6087 21.3931 39.9811 22.1342C37.9335 24.5533 34.8814 25.999 31.6547 25.999L31.6557 26Z" fill="white"/>
<path d="M17.1243 6.82927C18.8683 8.37195 19.7735 10.6116 19.7735 13.7219V18.4027C19.7735 23.1306 15.3717 25.2791 13.4301 25.7091C11.8963 26.049 6.57478 26.3235 4.16949 25.1235C3.003 24.5418 0 22.7102 0 19.4021C0 17.4581 0.590959 16.0441 2.06113 14.9295C3.53129 13.815 5.80258 13.2573 8.87499 13.2573H14.6766C14.6766 11.9354 14.13 10.9389 13.487 10.3793C12.5027 9.522 10.9043 9.3348 9.83132 9.3348C8.27921 9.3348 6.34341 10.1527 5.00339 10.9677C4.14925 11.4871 3.45128 11.1127 2.86321 10.2353L1.89146 8.53514C1.41136 7.60397 1.82108 6.92046 2.71282 6.36656C4.30735 5.37586 7.26311 4.28821 9.74167 4.28821C12.9953 4.28821 15.3804 5.2885 17.1243 6.83023V6.82927ZM12.8816 20.5521C13.7058 20.1777 14.3112 19.2955 14.4944 18.7906C14.6776 18.2856 14.6342 17.1193 14.6342 17.1193H9.26543C6.71168 17.1193 5.43528 17.7576 5.43528 19.0334C5.43528 19.6411 5.79776 20.1029 6.42246 20.4571C7.04716 20.8113 8.77762 21.0177 9.86796 21.0177C10.9583 21.0177 12.0563 20.9275 12.8806 20.5521H12.8816Z" fill="white"/>
<path d="M64.2854 0H62.6909C62.5013 0 62.3477 0.153007 62.3477 0.341752V1.92955C62.3477 2.1183 62.5013 2.2713 62.6909 2.2713H64.2854C64.4749 2.2713 64.6286 2.1183 64.6286 1.92955V0.341752C64.6286 0.153007 64.4749 0 64.2854 0Z" fill="white"/>
</g>
<defs>
<clipPath id="clip0_222_9561">
<rect width="64.6286" height="26" fill="white"/>
</clipPath>
</defs>
</svg>
